<?xml version="1.0" standalone="no"?>
<!DOCTYPE svg PUBLIC "-//W3C//DTD SVG 20010904//EN"
 "http://www.w3.org/TR/2001/REC-SVG-20010904/DTD/svg10.dtd">
<svg version="1.0" xmlns="http://www.w3.org/2000/svg"
 width="910.000000pt" height="1280.000000pt" viewBox="0 0 910.000000 1280.000000"
 preserveAspectRatio="xMidYMid meet">
<metadata>
Created by potrace 1.15, written by Peter Selinger 2001-2017
</metadata>
<g transform="translate(0.000000,1280.000000) scale(0.100000,-0.100000)"
fill="#000000" stroke="none">
<path d="M3630 12785 c-70 -20 -133 -57 -184 -109 -23 -23 -195 -282 -383
-577 -241 -376 -367 -563 -424 -629 -112 -131 -151 -194 -157 -251 -4 -46 -2
-50 46 -101 90 -95 262 -188 692 -372 212 -90 418 -180 459 -200 40 -19 97
-40 126 -47 105 -23 226 29 304 133 68 92 763 1180 789 1238 56 120 37 198
-73 297 -74 68 -865 577 -940 606 -68 26 -185 31 -255 12z"/>
<path d="M5292 11979 c-24 -4 -68 -19 -97 -33 -110 -50 -132 -80 -452 -615
-163 -273 -335 -557 -383 -631 -106 -164 -129 -207 -136 -263 -8 -57 14 -99
69 -131 47 -28 169 -80 446 -192 316 -128 446 -205 486 -290 24 -50 17 -118
-34 -331 -50 -212 -65 -318 -58 -402 7 -75 31 -154 54 -172 40 -34 180 94 340
314 158 216 197 263 318 394 l120 130 329 548 c181 302 337 569 347 594 56
149 18 324 -95 436 -37 37 -174 124 -506 321 -250 150 -473 281 -495 292 -76
38 -165 49 -253 31z"/>
<path d="M2030 11026 c-206 -55 -543 -430 -985 -1096 -474 -713 -979 -1653
-1037 -1934 -32 -150 85 -357 548 -968 818 -1081 864 -1147 1173 -1663 196
-329 329 -523 699 -1023 248 -337 351 -489 372 -552 15 -46 29 44 -160 -1028
-123 -697 -245 -1505 -291 -1928 -38 -340 -32 -711 13 -797 8 -16 121 -17
2253 -15 2101 3 2245 4 2261 20 14 13 19 46 26 145 7 112 27 252 60 418 6 30
11 424 13 1000 2 978 5 1070 51 1615 24 283 28 305 69 367 20 30 69 89 109
131 94 99 136 157 231 322 98 168 113 187 255 335 63 66 127 143 142 170 51
96 113 321 218 790 65 293 86 375 115 455 60 170 196 957 212 1230 4 83 2 113
-10 143 -9 20 -21 37 -27 37 -35 0 -145 -91 -705 -585 -341 -301 -630 -554
-643 -562 -32 -22 -66 -5 -91 45 -31 61 -67 99 -140 146 -36 24 -102 77 -147
117 -133 122 -382 358 -473 450 -149 148 -227 189 -501 259 -102 27 -243 64
-315 84 -271 75 -1106 250 -1251 263 -67 5 -73 4 -84 -17 -17 -31 9 -94 73
-178 122 -161 504 -631 884 -1089 163 -197 196 -242 213 -293 11 -34 57 -147
101 -252 44 -106 131 -332 194 -504 62 -171 131 -352 153 -400 22 -49 50 -120
62 -159 56 -184 169 -340 303 -418 80 -47 111 -79 103 -104 -4 -10 -54 -52
-111 -93 -97 -70 -140 -92 -206 -105 -29 -5 -97 -57 -129 -98 -34 -43 -40
-122 -40 -522 0 -360 15 -846 45 -1445 21 -411 20 -487 -5 -528 -11 -17 -22
-32 -25 -32 -2 0 -12 12 -21 26 -14 20 -17 46 -15 121 5 204 -36 697 -65 773
-13 36 -17 89 -19 260 -3 212 -17 360 -65 701 -32 221 -70 445 -92 539 -10 47
-23 138 -28 203 -10 126 -25 170 -62 182 -13 4 -149 10 -304 14 -216 5 -285 9
-297 20 -31 25 -18 38 51 54 266 65 812 464 812 595 0 31 -53 128 -195 357
-485 782 -1489 2238 -1784 2588 -82 98 -131 122 -424 218 -158 52 -234 83
-306 124 -150 85 -221 113 -343 136 -165 31 -241 55 -271 85 -15 15 -27 30
-27 34 0 13 74 39 130 46 45 6 60 14 111 61 160 148 284 401 296 604 5 72 2
97 -17 154 -24 73 -31 168 -14 185 8 8 27 0 65 -25 105 -71 227 -182 487 -443
l263 -264 77 -10 c236 -32 698 75 1174 272 148 60 191 96 243 200 78 157 114
327 122 577 l6 183 -32 29 c-202 189 -2349 1109 -2896 1242 -44 10 -82 19 -85
18 -3 0 -25 -6 -50 -13z"/>
<path d="M6700 10534 c-68 -18 -131 -55 -179 -103 -52 -53 -1630 -2311 -1666
-2385 -28 -56 -30 -70 -30 -167 0 -101 1 -108 37 -180 20 -40 54 -91 75 -111
28 -26 136 -83 398 -208 198 -95 381 -185 408 -202 144 -91 329 -90 470 5 38
25 185 204 662 807 337 426 695 879 795 1005 100 127 193 253 207 282 62 133
46 307 -39 418 -13 17 -194 199 -403 406 -254 252 -395 384 -425 399 -98 50
-206 62 -310 34z"/>
<path d="M8116 9190 c-15 -5 -37 -17 -48 -27 -11 -10 -311 -366 -667 -792
-355 -426 -744 -891 -865 -1035 -120 -144 -228 -281 -239 -306 -28 -60 -28
-151 -1 -203 28 -53 500 -543 554 -575 37 -23 57 -27 115 -27 95 1 134 23 270
154 61 59 493 476 961 928 905 873 892 859 902 962 7 72 -13 125 -70 189 -28
31 -182 190 -342 353 -283 287 -294 297 -376 337 -91 44 -148 56 -194 42z"/>
<path d="M4520 8544 c-779 -217 -736 -207 -885 -208 -178 -1 -192 6 -284 163
-30 50 -64 94 -81 104 -56 33 -167 12 -214 -42 -30 -34 -34 -126 -7 -179 51
-100 547 -435 911 -616 167 -83 218 -101 254 -92 17 4 50 39 99 104 41 53 180
219 308 368 396 458 399 462 399 503 0 16 -6 21 -27 20 -16 -1 -228 -57 -473
-125z"/>
</g>
</svg>
